<svg width="90" height="90" viewBox="0 0 90 90" fill="none" xmlns="http://www.w3.org/2000/svg">
<rect width="90" height="90" rx="10" fill="#222222"/>
<g clip-path="url(#clip0_32_620)">
<path d="M58 33H32C30.3457 33 29 34.3457 29 36V54C29 55.6543 30.3457 57 32 57H58C59.6543 57 61 55.6543 61 54V36C61 34.3457 59.6543 33 58 33ZM58 35C58.1358 35 58.2651 35.0282 58.3833 35.0774L45 46.6768L31.6167 35.0774C31.7381 35.0265 31.8683 35.0002 32 35H58ZM58 55H32C31.4483 55 31 54.5518 31 54V37.1904L44.3447 48.7559C44.5332 48.9189 44.7666 49 45 49C45.2334 49 45.4668 48.919 45.6553 48.7559L59 37.1904V54C58.9999 54.5518 58.5517 55 58 55Z" fill="#DDB166"/>
</g>
<defs>
<clipPath id="clip0_32_620">
<rect width="32" height="32" fill="white" transform="translate(29 29)"/>
</clipPath>
</defs>
</svg>
