<svg width="34" height="34" viewBox="0 0 34 34" fill="none" xmlns="http://www.w3.org/2000/svg">
<path d="M22.6761 22.4642C26.2942 16.787 25.8393 17.4953 25.9436 17.3472C27.2608 15.4893 27.957 13.3026 27.957 11.0234C27.957 4.97914 23.0522 0 17 0C10.9675 0 6.04297 4.96931 6.04297 11.0234C6.04297 13.3012 6.75378 15.5451 8.11418 17.4281L11.3237 22.4643C7.89218 22.9916 2.05859 24.5631 2.05859 28.0234C2.05859 29.2848 2.8819 31.0824 6.80412 32.4832C9.54284 33.4613 13.1638 34 17 34C24.1735 34 31.9414 31.9765 31.9414 28.0234C31.9414 24.5625 26.1147 22.9927 22.6761 22.4642ZM9.77825 16.3323C9.76731 16.3152 9.75586 16.2984 9.74392 16.2819C8.61189 14.7246 8.03516 12.8789 8.03516 11.0234C8.03516 6.04177 12.0465 1.99219 17 1.99219C21.9432 1.99219 25.9648 6.04357 25.9648 11.0234C25.9648 12.8819 25.399 14.665 24.3282 16.1813C24.2322 16.3078 24.7329 15.5301 17 27.6641L9.77825 16.3323ZM17 32.0078C9.16446 32.0078 4.05078 29.7046 4.05078 28.0234C4.05078 26.8935 6.67834 25.0355 12.5008 24.3113L16.16 30.0529C16.2499 30.1942 16.3741 30.3104 16.5209 30.391C16.6677 30.4715 16.8325 30.5138 16.9999 30.5138C17.1674 30.5138 17.3322 30.4715 17.479 30.391C17.6258 30.3104 17.7499 30.1942 17.8399 30.0529L21.499 24.3113C27.3216 25.0355 29.9492 26.8935 29.9492 28.0234C29.9492 29.6904 24.8816 32.0078 17 32.0078Z" fill="#DDB166"/>
<path d="M17 6.04297C14.2538 6.04297 12.0195 8.27721 12.0195 11.0234C12.0195 13.7697 14.2538 16.0039 17 16.0039C19.7462 16.0039 21.9805 13.7697 21.9805 11.0234C21.9805 8.27721 19.7462 6.04297 17 6.04297ZM17 14.0117C15.3523 14.0117 14.0117 12.6712 14.0117 11.0234C14.0117 9.3757 15.3523 8.03516 17 8.03516C18.6477 8.03516 19.9883 9.3757 19.9883 11.0234C19.9883 12.6712 18.6477 14.0117 17 14.0117Z" fill="#DDB166"/>
</svg>
