<svg width="90" height="90" viewBox="0 0 90 90" fill="none" xmlns="http://www.w3.org/2000/svg">
<rect width="90" height="90" rx="10" fill="#222222"/>
<g clip-path="url(#clip0_32_611)">
<path d="M54.8714 49.0618C54.1753 48.337 53.3357 47.9495 52.4459 47.9495C51.5633 47.9495 50.7165 48.3298 49.9917 49.0546L47.7241 51.315C47.5376 51.2145 47.351 51.1213 47.1716 51.028C46.9133 50.8988 46.6693 50.7768 46.4612 50.6476C44.3371 49.2986 42.4068 47.5405 40.5554 45.2657C39.6584 44.1319 39.0556 43.1775 38.6179 42.2088C39.2063 41.6706 39.7517 41.1108 40.2827 40.5726C40.4836 40.3717 40.6846 40.1636 40.8855 39.9627C42.3924 38.4557 42.3924 36.5039 40.8855 34.9969L38.9265 33.0379C38.704 32.8155 38.4744 32.5858 38.2591 32.3562C37.8285 31.9113 37.3765 31.452 36.91 31.0215C36.214 30.3326 35.3815 29.9666 34.5061 29.9666C33.6306 29.9666 32.7839 30.3326 32.0663 31.0215L32.0519 31.0358L29.6121 33.4972C28.6936 34.4157 28.1697 35.5351 28.0549 36.834C27.8827 38.9294 28.4998 40.8812 28.9734 42.1585C30.1359 45.2944 31.8725 48.2007 34.463 51.315C37.6061 55.068 41.3878 58.0317 45.7077 60.1199C47.3582 60.9021 49.5612 61.8277 52.0225 61.9856C52.1732 61.9928 52.3311 62 52.4746 62C54.1322 62 55.5244 61.4044 56.6151 60.2203C56.6223 60.206 56.6366 60.1988 56.6438 60.1845C57.017 59.7324 57.4475 59.3233 57.8996 58.8856C58.2082 58.5914 58.5239 58.2828 58.8325 57.9599C59.5429 57.2208 59.916 56.3597 59.916 55.4771C59.916 54.5872 59.5357 53.7333 58.811 53.0157L54.8714 49.0618ZM57.4404 56.618C57.4332 56.618 57.4332 56.6252 57.4404 56.618C57.1605 56.9194 56.8735 57.1921 56.5649 57.4935C56.0985 57.9384 55.6248 58.4048 55.1799 58.9287C54.4552 59.7037 53.6012 60.0696 52.4818 60.0696C52.3741 60.0696 52.2593 60.0696 52.1517 60.0625C50.0204 59.9261 48.0399 59.0937 46.5545 58.3833C42.4929 56.4171 38.9265 53.6257 35.9628 50.0879C33.5158 47.1386 31.8797 44.4118 30.7961 41.484C30.1288 39.6972 29.8848 38.3051 29.9924 36.9919C30.0642 36.1523 30.3871 35.4562 30.9827 34.8606L33.4297 32.4136C33.7813 32.0835 34.1545 31.9041 34.5204 31.9041C34.9725 31.9041 35.3385 32.1768 35.5681 32.4064L35.5896 32.428C36.0274 32.837 36.4436 33.2604 36.8813 33.7125C37.1038 33.9421 37.3334 34.1717 37.563 34.4085L39.5221 36.3676C40.2827 37.1282 40.2827 37.8314 39.5221 38.5921C39.314 38.8002 39.113 39.0083 38.9049 39.2092C38.3021 39.8263 37.7281 40.4004 37.1038 40.9601C37.0894 40.9745 37.0751 40.9817 37.0679 40.996C36.4508 41.6132 36.5656 42.2159 36.6947 42.625L36.7163 42.6895C37.2258 43.9238 37.9433 45.0863 39.0341 46.4713L39.0413 46.4784C41.0218 48.9183 43.11 50.8199 45.4135 52.2766C45.7077 52.4632 46.0091 52.6139 46.2961 52.7574C46.5545 52.8865 46.7984 53.0085 47.0065 53.1377C47.0353 53.152 47.064 53.1736 47.0927 53.1879C47.3366 53.3099 47.5663 53.3673 47.8031 53.3673C48.3987 53.3673 48.7718 52.9942 48.8938 52.8722L51.348 50.418C51.592 50.174 51.9795 49.8798 52.4316 49.8798C52.8765 49.8798 53.2424 50.1597 53.4649 50.4037L53.4792 50.418L57.4332 54.372C58.1723 55.1039 58.1723 55.8574 57.4404 56.618ZM46.3751 36.0877C48.2552 36.4034 49.963 37.2932 51.3265 38.6567C52.6899 40.0201 53.5725 41.728 53.8954 43.6081C53.9744 44.0817 54.3834 44.4118 54.8498 44.4118C54.9072 44.4118 54.9575 44.4046 55.0149 44.3974C55.5459 44.3113 55.8975 43.809 55.8114 43.278C55.4239 41.0032 54.3475 38.9294 52.7042 37.2861C51.061 35.6428 48.9871 34.5664 46.7123 34.1789C46.1813 34.0928 45.6862 34.4444 45.5929 34.9682C45.4996 35.4921 45.844 36.0016 46.3751 36.0877ZM61.9612 42.9981C61.3225 39.2523 59.5573 35.8437 56.8447 33.1312C54.1322 30.4187 50.7237 28.6534 46.9778 28.0148C46.454 27.9215 45.9589 28.2803 45.8656 28.8041C45.7795 29.3351 46.1311 29.8303 46.6621 29.9236C50.0061 30.4905 53.0559 32.0763 55.4813 34.4946C57.9068 36.9201 59.4855 39.9699 60.0524 43.3139C60.1313 43.7875 60.5404 44.1176 61.0068 44.1176C61.0642 44.1176 61.1144 44.1104 61.1718 44.1032C61.6957 44.0243 62.0545 43.522 61.9612 42.9981Z" fill="#DDB166"/>
</g>
<defs>
<clipPath id="clip0_32_611">
<rect width="34" height="34" fill="white" transform="translate(28 28)"/>
</clipPath>
</defs>
</svg>
