<svg width="39" height="51" viewBox="0 0 39 51" fill="none" xmlns="http://www.w3.org/2000/svg">
<path d="M0.9 51V0.599998H21.06C24.6533 0.599998 27.5583 1.32333 29.775 2.77C31.9917 4.19333 33.6133 5.99 34.64 8.16C35.6667 10.33 36.18 12.5233 36.18 14.74C36.18 17.5633 35.5383 19.9083 34.255 21.775C32.995 23.6417 31.2567 24.89 29.04 25.52V23.77C32.19 24.4233 34.5467 25.8817 36.11 28.145C37.6967 30.4083 38.49 32.94 38.49 35.74C38.49 38.75 37.93 41.3983 36.81 43.685C35.7133 45.9717 34.0333 47.7683 31.77 49.075C29.5067 50.3583 26.66 51 23.23 51H0.9ZM10.56 42.04H22.25C23.5333 42.04 24.6767 41.7717 25.68 41.235C26.6833 40.675 27.465 39.905 28.025 38.925C28.6083 37.9217 28.9 36.7433 28.9 35.39C28.9 34.2 28.655 33.1383 28.165 32.205C27.675 31.2717 26.9283 30.5367 25.925 30C24.945 29.44 23.72 29.16 22.25 29.16H10.56V42.04ZM10.56 20.27H20.92C21.9933 20.27 22.95 20.0833 23.79 19.71C24.63 19.3367 25.295 18.765 25.785 17.995C26.275 17.2017 26.52 16.1867 26.52 14.95C26.52 13.41 26.0417 12.115 25.085 11.065C24.1283 10.015 22.74 9.49 20.92 9.49H10.56V20.27Z" fill="white"/>
</svg>
