<svg width="43" height="51" viewBox="0 0 43 51" fill="none" xmlns="http://www.w3.org/2000/svg">
<path d="M0.9 51V0.599998H17.21C17.6067 0.599998 18.4233 0.611665 19.66 0.635C20.8967 0.658331 22.0867 0.739998 23.23 0.879999C27.29 1.37 30.7317 2.78167 33.555 5.115C36.3783 7.44833 38.525 10.4117 39.995 14.005C41.465 17.5983 42.2 21.53 42.2 25.8C42.2 30.07 41.465 34.0017 39.995 37.595C38.525 41.1883 36.3783 44.1517 33.555 46.485C30.7317 48.8183 27.29 50.23 23.23 50.72C22.0867 50.86 20.8967 50.9417 19.66 50.965C18.4233 50.9883 17.6067 51 17.21 51H0.9ZM10.56 42.04H17.21C17.84 42.04 18.6917 42.0283 19.765 42.005C20.8383 41.9583 21.8067 41.8533 22.67 41.69C24.8633 41.2467 26.6483 40.22 28.025 38.61C29.425 37 30.4517 35.0633 31.105 32.8C31.7817 30.5367 32.12 28.2033 32.12 25.8C32.12 23.28 31.77 20.8883 31.07 18.625C30.3933 16.3617 29.355 14.4483 27.955 12.885C26.555 11.3217 24.7933 10.33 22.67 9.91C21.8067 9.72333 20.8383 9.61833 19.765 9.595C18.6917 9.57167 17.84 9.56 17.21 9.56H10.56V42.04Z" fill="white"/>
</svg>
