<svg width="42" height="53" viewBox="0 0 42 53" fill="none" xmlns="http://www.w3.org/2000/svg">
<path d="M21.41 52.05C17.35 52.05 13.78 51.2333 10.7 49.6C7.62 47.9433 5.21667 45.6217 3.49 42.635C1.76333 39.6483 0.9 36.1367 0.9 32.1V0.669997L10.56 0.599998V32.03C10.56 33.6867 10.84 35.1917 11.4 36.545C11.96 37.8983 12.73 39.065 13.71 40.045C14.7133 41.025 15.8683 41.7833 17.175 42.32C18.505 42.8333 19.9167 43.09 21.41 43.09C22.95 43.09 24.3733 42.8217 25.68 42.285C27.01 41.7483 28.165 40.99 29.145 40.01C30.125 39.03 30.8833 37.8633 31.42 36.51C31.98 35.1567 32.26 33.6633 32.26 32.03V0.599998H41.92V32.1C41.92 36.1367 41.0567 39.6483 39.33 42.635C37.6033 45.6217 35.2 47.9433 32.12 49.6C29.04 51.2333 25.47 52.05 21.41 52.05Z" fill="white"/>
</svg>
